<svg width="61" height="33" viewBox="0 0 61 33" fill="none" xmlns="http://www.w3.org/2000/svg">
<path d="M30.2879 32.2667C27.7987 24.9138 23.0578 20.5349 15.296 20.1025C14.8341 18.7584 14.5418 17.3803 13.9104 16.1833C12.0273 12.5809 8.97857 10.7312 4.92243 10.5886C3.34063 10.5451 1.74738 10.6485 0.131753 10.5485C4.0239 5.52766 9.02147 2.26827 15.0796 0.431412C15.1019 0.725159 15.1356 0.939801 15.1353 1.16578C15.3103 6.61164 19.3621 10.8896 24.7963 11.3245C26.073 11.4248 26.3105 11.2325 26.2893 9.94442C26.2794 8.57727 26.2357 7.19886 26.2148 5.63964C28.9813 7.20724 31.5913 7.23836 34.3047 5.67623C34.3031 7.14508 34.313 8.51223 34.3228 9.87938C34.3327 11.2465 34.5359 11.4271 35.9257 11.3013C41.3271 10.7984 45.3201 6.55711 45.5067 1.11086C45.5069 0.907484 45.5298 0.70408 45.5527 0.410285C51.5956 2.22297 56.5863 5.47174 60.6711 10.5067C60.1288 10.5073 59.7785 10.5189 59.4169 10.5193C58.4 10.5204 57.3944 10.5328 56.3775 10.5338C50.5021 10.5627 46.4647 14.0131 45.532 19.8218C45.5206 19.9009 45.498 19.9687 45.4752 20.0817C37.543 20.4969 32.7815 24.9198 30.2879 32.2667Z" fill="black"/>
</svg>
