<svg width="61" height="33" viewBox="0 0 61 33" fill="none" xmlns="http://www.w3.org/2000/svg">
<path d="M30.3243 32.3033C27.8351 24.9504 23.0942 20.5715 15.3323 20.1391C14.8705 18.795 14.5782 17.4169 13.9467 16.2199C12.0637 12.6176 9.01494 10.7678 4.9588 10.6252C3.37701 10.5817 1.78376 10.6851 0.16813 10.5851C4.06028 5.56429 9.05785 2.3049 15.116 0.468033C15.1383 0.76178 15.1719 0.976423 15.1717 1.2024C15.3467 6.64827 19.3984 10.9262 24.8327 11.3611C26.1094 11.4614 26.3469 11.2691 26.3256 9.98105C26.3158 8.61389 26.2721 7.23548 26.2511 5.67626C29.0177 7.24386 31.6277 7.27498 34.3411 5.71285C34.3395 7.1817 34.3494 8.54885 34.3592 9.916C34.369 11.2832 34.5722 11.4637 35.9621 11.338C41.3635 10.8351 45.3565 6.59373 45.5431 1.14748C45.5433 0.944105 45.5661 0.740701 45.589 0.446907C51.632 2.25959 56.6226 5.50836 60.7075 10.5433C60.1651 10.5439 59.8149 10.5556 59.4533 10.5559C58.4364 10.557 57.4308 10.5694 56.4139 10.5705C50.5384 10.5993 46.5011 14.0498 45.5684 19.8584C45.557 19.9375 45.5343 20.0053 45.5116 20.1183C37.5794 20.5335 32.8178 24.9564 30.3243 32.3033Z" fill="white"/>
</svg>
